PathFileType	3	(X/Y/Z)	walking_3__view1_aligned.trc
DataRate	CameraRate	NumFrames	NumMarkers	Units	OrigDataRate	OrigDataStartFrame	OrigNumFrames
100.0	100.0	9	19	mm	100.0	4987	6348
Frame#	Time	pelvis			neck			head			hip_left			hip_right			knee_left			knee_right			ankle_left			ankle_right			heel_left			heel_right			toe_left			toe_right			shoulder_left			shoulder_right			elbow_left			elbow_right			wrist_left			wrist_right			
		X1	Y1	Z1	X2	Y2	Z2	X3	Y3	Z3	X4	Y4	Z4	X5	Y5	Z5	X6	Y6	Z6	X7	Y7	Z7	X8	Y8	Z8	X9	Y9	Z9	X10	Y10	Z10	X11	Y11	Z11	X12	Y12	Z12	X13	Y13	Z13	X14	Y14	Z14	X15	Y15	Z15	X16	Y16	Z16	X17	Y17	Z17	X18	Y18	Z18	X19	Y19	Z19	
4987	49.86000	18.901507	930.536298	157.709543	-26.447095	1479.532960	288.425105	-28.665743	1545.353445	443.842827	100.894525	930.751711	157.384846	-63.091892	930.320827	158.034531	119.251647	519.485807	271.745419	-100.447768	521.399132	317.533052	88.326749	223.060144	22.299782	-102.890521	103.604446	299.631674	83.650469	207.448682	-27.884080	-101.889455	48.999052	271.049618	57.722461	74.818824	109.343653	-99.452649	72.477082	496.918325	156.487690	1462.043437	254.146061	-192.190378	1411.937155	235.139581	250.818856	1184.781178	217.759751	-233.270354	1128.930008	176.490617	277.429136	954.719891	330.024706	-253.374990	893.953388	203.670521
4988	49.87000	19.641114	930.869588	157.131997	-25.381868	1479.768139	286.906655	-26.941051	1545.524571	442.301553	101.478406	930.975718	157.069561	-62.196555	930.763400	157.194728	120.293826	521.705803	280.547303	-101.137165	520.446676	309.189571	90.925257	223.082662	39.411327	-104.155867	103.340284	283.293530	86.500061	206.670694	-9.981851	-103.162999	49.196440	253.753610	60.451167	77.935162	128.358800	-100.808926	69.366929	480.232540	157.550304	1462.496543	251.445480	-191.623639	1411.942283	235.450846	250.400263	1185.474254	211.191092	-232.493699	1128.460001	181.292692	277.750265	953.382521	317.762953	-249.275692	894.433017	214.982168
4989	49.88000	20.380721	931.202878	156.554451	-24.316641	1480.003319	285.388205	-25.216359	1545.695696	440.760280	102.062286	931.199726	156.754275	-61.301219	931.205973	156.354924	121.336004	523.925798	289.349186	-101.826563	519.494220	300.846089	93.523765	223.105180	56.522871	-105.421212	103.076122	266.955385	89.349652	205.892707	7.920379	-104.436542	49.393828	236.457603	63.179873	81.051501	147.373948	-102.165204	66.256776	463.546755	158.612919	1462.949650	248.744900	-191.056900	1411.947410	235.762111	249.981670	1186.167330	204.622433	-231.717043	1127.989994	186.094767	278.071393	952.045151	305.501200	-245.176394	894.912645	226.293815
4990	49.89000	21.120328	931.536169	155.976904	-23.251413	1480.238498	283.869755	-23.491667	1545.866821	439.219007	102.646167	931.423733	156.438990	-60.405883	931.648546	155.515120	122.378182	526.145793	298.151069	-102.515961	518.541764	292.502607	96.122273	223.127698	73.634416	-106.686558	102.811961	250.617241	92.199243	205.114719	25.822609	-105.710085	49.591216	219.161595	65.908579	84.167839	166.389095	-103.521482	63.146623	446.860970	159.675534	1463.402756	246.044320	-190.490161	1411.952538	236.073375	249.563077	1186.860406	198.053773	-230.940387	1127.519986	190.896843	278.392521	950.707781	293.239448	-241.077097	895.392273	237.605461
4991	49.90000	21.859935	931.869459	155.399358	-22.186186	1480.473678	282.351306	-21.766975	1546.037947	437.677734	103.230048	931.647741	156.123704	-59.510546	932.091119	154.675317	123.420360	528.365789	306.952952	-103.205358	517.589308	284.159125	98.720781	223.150216	90.745960	-107.951904	102.547799	234.279096	95.048835	204.336732	43.724839	-106.983628	49.788604	201.865587	68.637285	87.284178	185.404242	-104.877760	60.036470	430.175185	160.738148	1463.855862	243.343739	-189.923422	1411.957665	236.384640	249.144484	1187.553482	191.485114	-230.163731	1127.049979	195.698918	278.713649	949.370411	280.977695	-236.977799	895.871902	248.917108
4992	49.91000	22.599542	932.202749	154.821812	-21.120958	1480.708858	280.832856	-20.042283	1546.209072	436.136461	103.813929	931.871748	155.808419	-58.615210	932.533692	153.835513	124.462538	530.585784	315.754835	-103.894756	516.636852	275.815643	101.319288	223.172734	107.857505	-109.217249	102.283637	217.940952	97.898426	203.558744	61.627069	-108.257171	49.985992	184.569579	71.365991	90.400517	204.419389	-106.234038	56.926316	413.489400	161.800763	1464.308969	240.643159	-189.356683	1411.962793	236.695904	248.725891	1188.246558	184.916454	-229.387075	1126.579972	200.500993	279.034777	948.033042	268.715942	-232.878501	896.351530	260.228755
4993	49.92000	23.339149	932.536039	154.244266	-20.055731	1480.944037	279.314406	-18.317591	1546.380197	434.595188	104.397810	932.095755	155.493133	-57.719874	932.976265	152.995709	125.504717	532.805780	324.556719	-104.584153	515.684396	267.472161	103.917796	223.195252	124.969049	-110.482595	102.019475	201.602807	100.748017	202.780756	79.529299	-109.530715	50.183380	167.273572	74.094697	93.516855	223.434537	-107.590316	53.816163	396.803615	162.863378	1464.762075	237.942579	-188.789944	1411.967920	237.007169	248.307297	1188.939634	178.347795	-228.610420	1126.109964	205.303068	279.355906	946.695672	256.454190	-228.779203	896.831159	271.540402
4994	49.93000	24.078756	932.869329	153.666719	-18.990503	1481.179217	277.795956	-16.592899	1546.551323	433.053914	104.981690	932.319763	155.177848	-56.824538	933.418838	152.155906	126.546895	535.025775	333.358602	-105.273551	514.731940	259.128679	106.516304	223.217770	142.080594	-111.747941	101.755313	185.264663	103.597609	202.002769	97.431529	-110.804258	50.380768	149.977564	76.823403	96.633194	242.449684	-108.946594	50.706010	380.117830	163.925992	1465.215181	235.241998	-188.223204	1411.973048	237.318434	247.888704	1189.632710	171.779136	-227.833764	1125.639957	210.105144	279.677034	945.358302	244.192437	-224.679905	897.310787	282.852049
4995	49.94000	24.818363	933.202619	153.089173	-17.925276	1481.414396	276.277507	-14.868207	1546.722448	431.512641	105.565571	932.543770	154.862562	-55.929201	933.861411	151.316102	127.589073	537.245770	342.160485	-105.962949	513.779484	250.785197	109.114812	223.240288	159.192138	-113.013286	101.491151	168.926518	106.447200	201.224781	115.333759	-112.077801	50.578156	132.681556	79.552109	99.749532	261.464831	-110.302871	47.595857	363.432045	164.988607	1465.668288	232.541418	-187.656465	1411.978175	237.629698	247.470111	1190.325786	165.210476	-227.057108	1125.169950	214.907219	279.998162	944.020932	231.930684	-220.580608	897.790416	294.163696
